<svg width="197" height="56" viewBox="0 0 197 56" fill="none" xmlns="http://www.w3.org/2000/svg">
<path d="M79.44 27.16C79.3867 27.6133 79.32 28.0133 79.24 28.36C79.1867 28.7067 79.0667 29.04 78.88 29.36C78.72 29.6533 78.48 29.9733 78.16 30.32C77.8667 30.6667 77.4667 31.0667 76.96 31.52C76.48 31.9733 76.0267 32.3067 75.6 32.52C75.2 32.7333 74.7733 32.92 74.32 33.08C73.8933 33.2133 73.4133 33.36 72.88 33.52C72.3467 33.6533 71.6933 33.8667 70.92 34.16C70.4933 34.32 70.1067 34.4533 69.76 34.56C69.4133 34.64 69.0933 34.6667 68.8 34.64H68.6C68.6 35.4933 68.6133 36.2 68.64 36.76C68.6933 37.32 68.7333 37.8133 68.76 38.24C68.8133 38.6667 68.8533 39.08 68.88 39.48C68.9333 39.8533 68.96 40.28 68.96 40.76C68.96 41 68.96 41.2667 68.96 41.56C68.96 41.8533 68.92 42.12 68.84 42.36C68.7867 42.6267 68.6667 42.84 68.48 43C68.2933 43.16 68.0133 43.24 67.64 43.24C67.24 43.24 66.9467 43.1467 66.76 42.96C66.5733 42.7733 66.44 42.52 66.36 42.2C66.28 41.9067 66.24 41.5467 66.24 41.12C66.24 40.72 66.2133 40.2933 66.16 39.84V39.88C66.1333 39.5333 66.1067 39.1067 66.08 38.6C66.0533 38.1467 66.0267 37.6 66 36.96C65.9733 36.32 65.9333 35.56 65.88 34.68V34.48C65.88 34.3467 65.8667 34.1467 65.84 33.88C65.8133 33.5867 65.7867 33.2933 65.76 33C65.76 32.7067 65.7467 32.4267 65.72 32.16C65.6933 31.8933 65.68 31.6933 65.68 31.56V31.64C65.6533 31.64 65.6667 31.2667 65.72 30.52C65.7733 29.7467 65.8 28.5867 65.8 27.04C65.8 26.5333 65.7867 26.08 65.76 25.68C65.7333 25.2533 65.68 24.88 65.6 24.56C65.6 24.5067 65.6 24.44 65.6 24.36C65.6267 24.28 65.64 24.1733 65.64 24.04C65.64 23.88 65.6267 23.7067 65.6 23.52C65.6 23.3067 65.6 23.08 65.6 22.84C65.6 22.3867 65.6533 22.04 65.76 21.8C65.8933 21.5333 66.0667 21.3467 66.28 21.24C66.52 21.1067 66.8 21.0267 67.12 21C67.44 20.9733 67.8 20.96 68.2 20.96H68.6C70.0133 20.5867 71.1867 20.4 72.12 20.4C72.3333 20.4 72.6933 20.44 73.2 20.52C73.7333 20.6 74.4267 20.7067 75.28 20.84C76 21.16 76.6133 21.4667 77.12 21.76C77.6533 22.0533 78.08 22.4267 78.4 22.88C78.7467 23.3067 79 23.8667 79.16 24.56C79.3467 25.2267 79.44 26.0933 79.44 27.16ZM76.56 27.88C76.6133 27.6133 76.64 27.36 76.64 27.12C76.64 26.88 76.64 26.6533 76.64 26.44C76.64 25.4533 76.4133 24.72 75.96 24.24C75.5333 23.76 74.72 23.3333 73.52 22.96C72.9867 22.8267 72.4933 22.76 72.04 22.76C72.0933 22.76 71.9333 22.7867 71.56 22.84C71.1867 22.8667 70.76 22.92 70.28 23C69.8267 23.08 69.4 23.2 69 23.36C68.6 23.52 68.4 23.72 68.4 23.96C68.4 24.8667 68.4267 25.72 68.48 26.52C68.56 27.32 68.6 27.92 68.6 28.32C68.5733 28.3733 68.56 29.6 68.56 32H68.88C69.36 32 69.88 31.92 70.44 31.76C71.0267 31.5733 71.6 31.3733 72.16 31.16C74.5067 30.6267 75.9733 29.5333 76.56 27.88ZM98.5769 37C98.9502 37.24 99.1369 37.5333 99.1369 37.88C99.1369 38.2533 98.9502 38.6133 98.5769 38.96C98.2035 39.3067 97.8435 39.48 97.4969 39.48C96.6702 39.1867 95.9502 38.64 95.3369 37.84C94.7502 37.04 94.3502 36.1733 94.1369 35.24C93.9502 35.64 93.7235 36.1467 93.4569 36.76C93.2169 37.3467 92.8969 37.9067 92.4969 38.44C92.0969 38.9733 91.6035 39.44 91.0169 39.84C90.4302 40.2133 89.6969 40.4 88.8169 40.4C88.3635 40.4 87.7635 40.32 87.0169 40.16C86.1902 39.5733 85.5369 39.1067 85.0569 38.76C84.6035 38.3867 84.2569 38.04 84.0169 37.72C83.7769 37.4 83.6302 37.04 83.5769 36.64C83.5235 36.24 83.4969 35.7067 83.4969 35.04C83.4969 34.48 83.5769 33.8667 83.7369 33.2C83.9235 32.5067 84.1769 31.8133 84.4969 31.12C84.8169 30.4267 85.2169 29.7467 85.6969 29.08C86.1769 28.4133 86.7369 27.8 87.3769 27.24C88.5502 26.84 89.4702 26.5467 90.1369 26.36C90.8035 26.1733 91.2569 26.08 91.4969 26.08C92.0302 25.4667 92.5902 25.16 93.1769 25.16C93.4969 25.16 93.7769 25.3467 94.0169 25.72C94.2569 26.0933 94.4702 26.5867 94.6569 27.2C94.8702 27.7867 95.0302 28.44 95.1369 29.16C95.2702 29.88 95.3769 30.5733 95.4569 31.24C95.5369 31.3733 95.6035 31.5333 95.6569 31.72C95.7102 31.88 95.7635 32.0933 95.8169 32.36L96.0569 33.48C96.2169 34.2533 96.5235 34.92 96.9769 35.48C97.4302 36.04 97.9635 36.5467 98.5769 37ZM92.9369 31.72C92.8835 31.48 92.7902 31.08 92.6569 30.52C92.5235 29.96 92.3502 29.24 92.1369 28.36C91.8169 28.44 91.4702 28.48 91.0969 28.48C90.7235 28.4533 90.3235 28.52 89.8969 28.68C89.4702 28.84 89.0035 29.1333 88.4969 29.56C88.0169 29.9867 87.5235 30.6533 87.0169 31.56C86.3769 32.7333 86.0569 33.9733 86.0569 35.28C86.2169 35.6267 86.3635 35.9333 86.4969 36.2C86.6302 36.44 86.7902 36.6667 86.9769 36.88C87.1902 37.0667 87.4435 37.2533 87.7369 37.44C88.0302 37.6267 88.4035 37.8267 88.8569 38.04C89.2569 37.96 89.5902 37.8667 89.8569 37.76C90.1502 37.6533 90.4035 37.4933 90.6169 37.28C90.8302 37.04 91.0302 36.7467 91.2169 36.4C91.4035 36.0533 91.6302 35.6 91.8969 35.04C92.5902 33.4933 92.9369 32.3867 92.9369 31.72ZM113.29 36.64C113.21 37.4133 112.93 38.1467 112.45 38.84L111.01 40.88C110.77 41.0933 110.396 41.2667 109.89 41.4C109.383 41.56 108.863 41.68 108.33 41.76C107.823 41.8667 107.356 41.9467 106.93 42C106.53 42.0533 106.316 42.08 106.29 42.08C106.023 42.08 105.676 42.0267 105.25 41.92C104.85 41.84 104.45 41.7467 104.05 41.64C103.65 41.5333 103.303 41.4267 103.01 41.32C102.716 41.24 102.556 41.2 102.53 41.2H102.49C102.196 41.1733 101.876 41.1067 101.53 41C101.21 40.8933 100.89 40.76 100.57 40.6C100.276 40.44 100.036 40.2667 99.8497 40.08C99.6364 39.8667 99.5297 39.64 99.5297 39.4C99.5297 39.1067 99.6764 38.8133 99.9697 38.52C100.263 38.2 100.556 38.04 100.85 38.04C103.543 39.1067 105.69 39.64 107.29 39.64C107.876 39.64 108.37 39.52 108.77 39.28C109.196 39.04 109.516 38.7867 109.73 38.52L110.57 37C110.57 36.6533 110.463 36.3067 110.25 35.96C110.063 35.6133 109.796 35.3067 109.45 35.04C109.13 34.7467 108.756 34.4933 108.33 34.28C107.903 34.0667 107.463 33.92 107.01 33.84C106.503 33.76 105.983 33.6133 105.45 33.4C104.943 33.1867 104.463 32.9333 104.01 32.64C103.583 32.3467 103.223 32.0267 102.93 31.68C102.663 31.3067 102.516 30.9067 102.49 30.48C102.463 30.48 102.436 29.9733 102.41 28.96C102.463 28.56 102.516 28.24 102.57 28C102.623 27.76 102.743 27.5467 102.93 27.36C103.116 27.1467 103.396 26.92 103.77 26.68C104.17 26.44 104.73 26.0933 105.45 25.64C105.663 25.6133 106.05 25.5867 106.61 25.56C107.196 25.5067 107.983 25.4267 108.97 25.32C109.396 25.32 110.49 25.64 112.25 26.28C112.516 26.52 112.65 26.88 112.65 27.36C112.65 28.1867 112.37 28.6 111.81 28.6C111.783 28.6 111.756 28.6 111.73 28.6C111.703 28.5733 111.663 28.56 111.61 28.56L110.17 28.08C109.45 27.8667 108.836 27.76 108.33 27.76C107.583 27.76 106.983 27.8 106.53 27.88C106.103 27.96 105.783 28.0667 105.57 28.2C105.356 28.3067 105.21 28.4267 105.13 28.56C105.05 28.6933 104.996 28.8133 104.97 28.92C104.97 29 104.956 29.08 104.93 29.16C104.93 29.2133 104.93 29.28 104.93 29.36C104.93 30.4 105.356 31.04 106.21 31.28C110.423 32.1333 112.783 33.92 113.29 36.64ZM128.432 26.24C128.645 26.4 128.752 26.7067 128.752 27.16C128.752 27.96 128.419 28.36 127.752 28.36H127.592C127.592 28.36 127.392 28.3867 126.992 28.44C126.619 28.4667 126.192 28.5067 125.712 28.56C125.232 28.6133 124.765 28.68 124.312 28.76C123.885 28.8133 123.632 28.8667 123.552 28.92V29.32C123.552 29.6133 123.525 30.0133 123.472 30.52C123.419 31 123.392 31.44 123.392 31.84C123.392 31.9733 123.392 32.1067 123.392 32.24C123.419 32.3733 123.445 32.5067 123.472 32.64C123.365 32.96 123.312 33.4933 123.312 34.24C123.339 35.2533 123.365 36.0133 123.392 36.52C123.419 37 123.499 37.36 123.632 37.6C123.765 37.84 123.992 38.0267 124.312 38.16C124.632 38.2933 125.099 38.4933 125.712 38.76C126.352 38.9733 126.672 39.3467 126.672 39.88C126.672 40.2267 126.539 40.52 126.272 40.76C126.032 41 125.712 41.12 125.312 41.12C125.125 41.12 124.845 41.08 124.472 41C124.099 40.92 123.712 40.8133 123.312 40.68C122.939 40.52 122.592 40.3467 122.272 40.16C121.952 39.9467 121.739 39.72 121.632 39.48C121.312 38.7867 121.059 38.12 120.872 37.48C120.685 36.8133 120.592 36.12 120.592 35.4C120.592 34.6533 120.605 34.0933 120.632 33.72C120.659 33.3467 120.685 33.0533 120.712 32.84C120.739 32.6267 120.765 32.44 120.792 32.28C120.819 32.0933 120.832 31.84 120.832 31.52C120.832 31.3067 120.819 31.0933 120.792 30.88C120.792 30.64 120.792 30.4133 120.792 30.2C120.792 29.9067 120.792 29.6667 120.792 29.48C120.819 29.2667 120.845 29.0933 120.872 28.96C120.152 29.0133 119.085 29.2267 117.672 29.6C117.245 29.6 116.872 29.4933 116.552 29.28C116.232 29.0667 116.072 28.76 116.072 28.36C116.072 28.2533 116.112 28.1067 116.192 27.92C116.272 27.7333 116.405 27.56 116.592 27.4C116.805 27.2133 117.085 27.0667 117.432 26.96C117.805 26.8267 118.259 26.76 118.792 26.76H119.032C119.619 26.76 120.299 26.64 121.072 26.4C121.072 26.3733 121.072 26.2667 121.072 26.08C121.099 25.8667 121.112 25.64 121.112 25.4C121.139 25.1333 121.152 24.88 121.152 24.64C121.179 24.4 121.192 24.2267 121.192 24.12V23.92C121.219 23.6267 121.272 23.2133 121.352 22.68C121.432 22.12 121.552 21.5733 121.712 21.04C121.872 20.48 122.072 20 122.312 19.6C122.579 19.2 122.899 19 123.272 19C123.992 19 124.432 19.32 124.592 19.96C124.592 20.0133 124.552 20.2 124.472 20.52C124.419 20.84 124.352 21.2 124.272 21.6C124.192 22 124.112 22.3867 124.032 22.76C123.952 23.1333 123.912 23.3733 123.912 23.48C123.912 23.5333 123.899 23.68 123.872 23.92C123.845 24.16 123.819 24.4267 123.792 24.72C123.792 25.0133 123.779 25.3067 123.752 25.6C123.725 25.8933 123.712 26.1067 123.712 26.24C123.659 26.24 124.019 26.2 124.792 26.12C124.925 26.12 125.045 26.12 125.152 26.12C125.285 26.0933 125.405 26.08 125.512 26.08C125.592 26.08 125.659 26.0933 125.712 26.12C125.765 26.12 125.819 26.12 125.872 26.12C126.112 26.0933 126.339 26.08 126.552 26.08C126.765 26.0533 126.965 26.04 127.152 26.04C127.739 26.04 128.165 26.1067 128.432 26.24ZM137.499 22.76C137.499 23.2133 137.419 23.5867 137.259 23.88C137.126 24.1467 136.939 24.3467 136.699 24.48C136.459 24.6133 136.192 24.7067 135.899 24.76C135.632 24.7867 135.366 24.8 135.099 24.8C134.726 24.5333 134.406 24.24 134.139 23.92C133.899 23.5733 133.779 23.24 133.779 22.92C133.779 22.68 133.886 22.4133 134.099 22.12C134.312 21.8 134.499 21.4933 134.659 21.2L136.499 21.36C137.166 21.52 137.499 21.9867 137.499 22.76ZM136.139 28.56V28.72C136.139 28.96 136.099 29.36 136.019 29.92C135.966 30.4533 135.872 31.16 135.739 32.04C135.766 32.1733 135.779 32.36 135.779 32.6C135.779 32.76 135.726 33.12 135.619 33.68C135.512 34.24 135.459 34.72 135.459 35.12C135.459 35.2 135.459 35.28 135.459 35.36C135.486 35.44 135.499 35.5067 135.499 35.56C135.419 35.9333 135.379 36.4667 135.379 37.16C135.379 37.4533 135.379 37.7733 135.379 38.12C135.406 38.44 135.432 38.7867 135.459 39.16C135.246 39.9333 134.832 40.32 134.219 40.32C133.686 40.32 133.312 40.04 133.099 39.48C132.912 38.8933 132.819 38.1333 132.819 37.2C132.819 36.2667 132.846 35.4133 132.899 34.64C132.979 33.8667 133.072 33.1467 133.179 32.48C133.286 31.7867 133.392 31.1333 133.499 30.52C133.632 29.88 133.752 29.2533 133.859 28.64C134.126 28.24 134.499 28.04 134.979 28.04C135.486 28.04 135.872 28.2133 136.139 28.56ZM166.671 39C166.671 39.56 166.244 39.84 165.391 39.84C164.991 39.84 164.684 39.6667 164.471 39.32C164.284 38.9733 164.151 38.5333 164.071 38C163.991 37.4667 163.938 36.88 163.911 36.24C163.911 35.5733 163.898 34.9333 163.871 34.32C163.738 33.84 163.578 33.0133 163.391 31.84C163.044 31.36 162.604 30.9733 162.071 30.68C161.564 30.36 160.991 30.2 160.351 30.2C160.111 30.2 159.844 30.24 159.551 30.32C159.258 30.3733 158.951 30.4533 158.631 30.56C158.311 30.64 158.004 30.7467 157.711 30.88C157.418 31.0133 157.178 31.16 156.991 31.32C156.458 31.7467 156.004 32.7733 155.631 34.4C155.658 34.5333 155.671 34.7867 155.671 35.16C155.671 35.48 155.644 35.8667 155.591 36.32C155.564 36.7467 155.524 37.24 155.471 37.8V38.08C155.471 38.16 155.471 38.3867 155.471 38.76C155.498 39.1333 155.471 39.5333 155.391 39.96C155.311 40.36 155.164 40.72 154.951 41.04C154.738 41.3867 154.418 41.56 153.991 41.56C153.111 41.56 152.671 41.2267 152.671 40.56C152.671 40.48 152.684 40.2667 152.711 39.92C152.764 39.5467 152.818 39.1333 152.871 38.68C152.951 38.2267 153.004 37.7733 153.031 37.32C153.084 36.84 153.111 36.4533 153.111 36.16C153.111 35.6 153.071 35.0933 152.991 34.64V33.88C152.991 33.4 152.951 32.8933 152.871 32.36C152.818 31.8267 152.711 31.3333 152.551 30.88C152.391 30.4 152.164 29.9867 151.871 29.64C151.604 29.2933 151.258 29.04 150.831 28.88C150.778 28.8533 150.338 28.8 149.511 28.72C148.818 28.88 148.231 29.32 147.751 30.04L146.791 31.92C146.711 32.4267 146.644 32.88 146.591 33.28C146.564 33.68 146.538 34.0533 146.511 34.4L146.391 36.24C146.551 37.1733 146.631 37.9467 146.631 38.56C146.631 39.0933 146.564 39.5333 146.431 39.88C146.298 40.2 145.938 40.36 145.351 40.36C145.058 40.36 144.818 40.3333 144.631 40.28C144.444 40.2 144.284 40 144.151 39.68C144.044 39.36 143.964 38.88 143.911 38.24C143.858 37.6 143.831 36.7067 143.831 35.56C143.831 34.6533 143.884 33.76 143.991 32.88C144.124 31.9733 144.298 30.84 144.511 29.48C144.431 28.68 144.231 27.9067 143.911 27.16C143.911 26.8133 144.031 26.5067 144.271 26.24C144.538 25.9733 144.884 25.84 145.311 25.84C145.658 25.84 145.938 25.96 146.151 26.2C146.391 26.44 146.711 26.9067 147.111 27.6C147.644 27.0667 148.098 26.68 148.471 26.44C148.871 26.2 149.284 26.0533 149.711 26C150.138 26 150.471 26.0133 150.711 26.04C150.978 26.04 151.218 26.08 151.431 26.16C151.671 26.2133 151.924 26.3333 152.191 26.52C152.458 26.68 152.831 26.92 153.311 27.24C153.791 27.5867 154.284 28.56 154.791 30.16C154.924 29.9733 155.124 29.7333 155.391 29.44C155.684 29.1467 156.044 28.8667 156.471 28.6C156.898 28.3333 157.418 28.1067 158.031 27.92C158.644 27.7333 159.351 27.64 160.151 27.64C161.004 27.64 161.738 27.72 162.351 27.88C162.964 28.04 163.498 28.28 163.951 28.6C164.404 28.92 164.791 29.32 165.111 29.8C165.458 30.28 165.778 30.84 166.071 31.48V31.8C166.071 32.04 166.098 32.4533 166.151 33.04C166.204 33.6267 166.258 34.2133 166.311 34.8C166.364 35.36 166.418 35.8533 166.471 36.28C166.524 36.7067 166.551 36.8933 166.551 36.84C166.551 36.8667 166.551 36.96 166.551 37.12C166.578 37.2533 166.591 37.4267 166.591 37.64C166.618 37.8267 166.631 38.0267 166.631 38.24C166.658 38.4533 166.671 38.6267 166.671 38.76V39ZM186.532 39.4C185.678 40.2533 184.678 40.9867 183.532 41.6C182.385 42.2133 181.212 42.52 180.012 42.52C179.505 42.52 178.345 42.3333 176.532 41.96C176.052 41.64 175.545 41.24 175.012 40.76C174.478 40.28 173.985 39.7333 173.532 39.12C173.105 38.48 172.745 37.8133 172.452 37.12C172.185 36.4 172.052 35.6533 172.052 34.88V34.92C172.078 34.68 172.105 34.4 172.132 34.08C172.158 33.7867 172.185 33.4533 172.212 33.08C172.238 32.68 172.278 32.2133 172.332 31.68C172.865 30.8267 173.412 29.9867 173.972 29.16C174.558 28.3333 175.412 27.6 176.532 26.96C178.238 26.56 179.518 26.36 180.372 26.36C180.772 26.36 181.118 26.3867 181.412 26.44C181.732 26.4667 182.025 26.56 182.292 26.72C182.585 26.8533 182.865 27.04 183.132 27.28C183.425 27.52 183.772 27.84 184.172 28.24C184.465 28.56 184.692 28.8 184.852 28.96C185.012 29.0933 185.132 29.2 185.212 29.28C185.292 29.36 185.332 29.4267 185.332 29.48C185.332 29.5333 185.332 29.6133 185.332 29.72C185.332 30.68 185.225 31.4533 185.012 32.04C184.825 32.6267 184.452 33.1067 183.892 33.48C183.358 33.8533 182.612 34.1867 181.652 34.48C180.692 34.7467 179.452 35.0533 177.932 35.4H177.692C177.212 35.4 176.358 35.5067 175.132 35.72C176.092 38.5467 177.625 39.96 179.732 39.96C181.225 39.96 182.918 39.2 184.812 37.68C184.998 37.52 185.238 37.44 185.532 37.44C186.358 37.44 186.772 37.84 186.772 38.64C186.772 38.9067 186.692 39.16 186.532 39.4ZM182.692 30.44C181.972 29.24 181.158 28.64 180.252 28.64C179.852 28.64 179.425 28.6933 178.972 28.8C178.518 28.9067 178.078 29.0533 177.652 29.24C177.252 29.4267 176.865 29.6533 176.492 29.92C176.145 30.1867 175.852 30.4933 175.612 30.84C175.505 31.0533 175.398 31.36 175.292 31.76C175.212 32.16 175.105 32.64 174.972 33.2C175.692 33.0667 176.478 32.9733 177.332 32.92C178.212 32.8667 179.038 32.76 179.812 32.6C180.612 32.44 181.278 32.2 181.812 31.88C182.345 31.56 182.638 31.08 182.692 30.44Z" fill="#FFD6FE"/>
<path d="M45.8095 24.7619H42.0952V14.8571C42.0952 12.1086 39.8667 9.90476 37.1429 9.90476H27.2381V6.19048C27.2381 4.54866 26.5859 2.97409 25.4249 1.81315C24.264 0.652209 22.6894 0 21.0476 0C19.4058 0 17.8312 0.652209 16.6703 1.81315C15.5094 2.97409 14.8571 4.54866 14.8571 6.19048V9.90476H4.95238C3.63893 9.90476 2.37927 10.4265 1.45052 11.3553C0.521767 12.284 0 13.5437 0 14.8571V24.2667H3.71429C7.42857 24.2667 10.4 27.2381 10.4 30.9524C10.4 34.6667 7.42857 37.6381 3.71429 37.6381H0V47.0476C0 48.3611 0.521767 49.6207 1.45052 50.5495C2.37927 51.4782 3.63893 52 4.95238 52H14.3619V48.2857C14.3619 44.5714 17.3333 41.6 21.0476 41.6C24.7619 41.6 27.7333 44.5714 27.7333 48.2857V52H37.1429C38.4563 52 39.716 51.4782 40.6447 50.5495C41.5735 49.6207 42.0952 48.3611 42.0952 47.0476V37.1429H45.8095C47.4513 37.1429 49.0259 36.4907 50.1869 35.3297C51.3478 34.1688 52 32.5942 52 30.9524C52 29.3106 51.3478 27.736 50.1869 26.5751C49.0259 25.4141 47.4513 24.7619 45.8095 24.7619Z" fill="#FFD6FE"/>
</svg>
